<svg xmlns="http://www.w3.org/2000/svg" xmlns:xlink="http://www.w3.org/1999/xlink" width="500" zoomAndPan="magnify" viewBox="0 0 375 374.999991" height="500" preserveAspectRatio="xMidYMid meet" version="1.0"><defs><g/><clipPath id="0549b5fe23"><path d="M 142.78125 83.605469 L 231 83.605469 L 231 213.355469 L 142.78125 213.355469 Z M 142.78125 83.605469 " clip-rule="nonzero"/></clipPath></defs><rect x="-37.5" width="450" fill="#ffffff" y="-37.499999" height="449.999989" fill-opacity="1"/><rect x="-37.5" width="450" fill="#ffffff" y="-37.499999" height="449.999989" fill-opacity="1"/><g clip-path="url(#0549b5fe23)"><path fill="#6c6dd6" d="M 225.152344 150.691406 C 202.511719 163.578125 187.816406 178.292969 182.277344 193.765625 C 181.054688 197.175781 180.285156 200.644531 179.964844 204.15625 C 179.515625 209.117188 183.417969 213.441406 188.394531 213.5 C 188.449219 213.5 188.503906 213.5 188.550781 213.5 C 189.476562 213.488281 190.398438 213.445312 191.320312 213.375 C 191.777344 213.339844 192.238281 213.296875 192.699219 213.246094 C 192.878906 213.226562 193.058594 213.199219 193.242188 213.1875 C 193.214844 213.191406 193.1875 213.195312 193.160156 213.199219 C 192.566406 213.300781 194.179688 213.101562 193.25 213.1875 C 194.960938 212.902344 196.65625 212.609375 198.335938 212.1875 C 200.089844 211.746094 201.820312 211.214844 203.519531 210.601562 C 204.269531 210.332031 205.011719 210.039062 205.75 209.738281 C 205.757812 209.734375 205.769531 209.734375 205.777344 209.726562 C 205.886719 209.675781 206.351562 209.488281 206.558594 209.390625 C 206.9375 209.222656 207.316406 209.050781 207.691406 208.875 L 207.738281 208.851562 C 211.132812 207.246094 214.257812 205.125 216.945312 202.507812 C 219.769531 199.761719 222.265625 196.582031 224.332031 193.003906 L 225.0625 191.738281 C 231.6875 179.304688 232.167969 163.949219 225.152344 150.691406 Z M 186.453125 83.605469 C 185.953125 84.46875 185.929688 85.519531 186.378906 86.414062 C 190.785156 95.207031 192.128906 105.269531 189.914062 115.121094 C 187.183594 127.277344 178.917969 136.121094 170.140625 144.402344 C 166.117188 148.199219 162.023438 151.988281 158.585938 156.339844 C 158.578125 156.34375 158.574219 156.347656 158.574219 156.351562 C 158.5625 156.367188 158.542969 156.390625 158.519531 156.421875 C 158.527344 156.410156 158.535156 156.402344 158.542969 156.394531 C 158.421875 156.554688 158.097656 156.980469 158.097656 156.980469 C 157.925781 157.210938 157.757812 157.441406 157.59375 157.675781 C 157.179688 158.257812 156.777344 158.847656 156.394531 159.449219 C 155.699219 160.539062 155.050781 161.660156 154.46875 162.808594 C 153.199219 165.320312 152.273438 168.136719 151.679688 171.027344 C 150.550781 176.550781 150.960938 182.824219 153.3125 187.984375 C 154.386719 190.339844 155.632812 192.628906 156.996094 194.835938 C 157.65625 195.910156 158.355469 196.964844 159.09375 197.996094 C 159.234375 198.195312 159.378906 198.390625 159.523438 198.585938 C 159.523438 198.585938 159.667969 198.785156 159.789062 198.949219 C 159.796875 198.964844 159.820312 198.996094 159.871094 199.058594 C 159.882812 199.074219 159.894531 199.085938 159.902344 199.097656 C 159.917969 199.113281 159.929688 199.128906 159.941406 199.148438 L 159.945312 199.152344 C 160.070312 199.3125 160.222656 199.503906 160.222656 199.503906 C 160.371094 199.691406 160.519531 199.875 160.671875 200.054688 C 162.035156 201.707031 163.507812 203.273438 165.09375 204.714844 C 165.566406 205.148438 166.050781 205.574219 166.546875 205.984375 C 166.707031 206.117188 167.167969 206.476562 167.222656 206.527344 C 167.21875 206.527344 167.214844 206.523438 167.214844 206.523438 C 167.914062 207.050781 168.632812 207.554688 169.371094 208.035156 C 169.898438 208.378906 170.4375 208.707031 170.984375 209.023438 C 170.847656 202.859375 171.847656 196.773438 173.988281 190.800781 C 177.484375 181.03125 184.054688 171.621094 193.457031 162.773438 C 208.144531 148.960938 211.441406 126.882812 201.363281 109.421875 Z M 182.917969 109.121094 C 182.371094 114.945312 180.085938 120.757812 176.6875 125.699219 C 175.777344 127.019531 175.402344 127.507812 174.429688 128.671875 C 173.503906 129.78125 172.542969 130.859375 171.550781 131.90625 C 169.550781 134.03125 167.449219 136.046875 165.335938 138.050781 C 156.605469 146.3125 147.773438 154.765625 144.550781 166.773438 C 144.542969 166.808594 144.53125 166.84375 144.523438 166.878906 C 144.261719 167.863281 142.804688 167.601562 142.910156 166.585938 C 143.527344 160.652344 145.371094 154.75 148.546875 149.25 C 148.546875 149.25 179.046875 110.875 180.839844 93.332031 C 182.667969 98.160156 183.441406 103.589844 182.917969 109.121094 " fill-opacity="1" fill-rule="nonzero"/></g><g fill="#6c6dd6" fill-opacity="1"><g transform="translate(108.58677, 213.990734)"><g><path d="M 24.933594 -9.203125 C 24.777344 -9.402344 24.566406 -9.558594 24.4375 -9.730469 C 24.414062 -9.757812 24.414062 -9.757812 24.394531 -9.785156 L 24.304688 -9.902344 C 24.285156 -9.929688 24.261719 -9.957031 24.238281 -9.988281 L 24.195312 -10.042969 C 24.109375 -10.15625 24 -10.300781 23.859375 -10.421875 C 23.628906 -10.605469 23.367188 -10.769531 23.105469 -10.929688 C 22.894531 -11.085938 22.632812 -11.25 22.367188 -11.363281 C 22.097656 -11.472656 21.867188 -11.660156 21.589844 -11.71875 C 21.367188 -11.777344 21.09375 -11.835938 20.839844 -11.871094 L 20.804688 -11.796875 C 20.683594 -11.839844 20.566406 -11.933594 20.488281 -11.917969 C 20.488281 -11.917969 20.480469 -11.867188 20.453125 -11.84375 L 20.328125 -11.886719 C 20.179688 -11.90625 20.078125 -11.917969 19.925781 -11.941406 L 19.285156 -11.945312 C 19.027344 -11.929688 18.765625 -11.910156 18.5 -11.84375 C 18.402344 -11.859375 18.316406 -11.792969 18.183594 -11.78125 C 17.976562 -11.757812 17.738281 -11.714844 17.523438 -11.640625 C 17.289062 -11.59375 17.085938 -11.441406 16.871094 -11.363281 L 16.519531 -11.230469 C 16.355469 -11.152344 16.175781 -11.148438 16.011719 -11.066406 C 15.847656 -10.988281 15.726562 -10.847656 15.582031 -10.738281 C 15.476562 -10.703125 15.363281 -10.613281 15.226562 -10.554688 C 15.226562 -10.554688 15.21875 -10.503906 15.195312 -10.53125 C 15.082031 -10.445312 14.96875 -10.355469 14.90625 -10.261719 C 14.761719 -10.152344 14.625 -10.09375 14.511719 -10.007812 C 14.453125 -9.960938 14.414062 -9.839844 14.355469 -9.796875 L 13.964844 -9.359375 C 13.871094 -9.242188 13.707031 -9.164062 13.613281 -9.046875 C 13.488281 -8.855469 13.433594 -8.632812 13.332031 -8.464844 C 13.242188 -8.351562 13.128906 -8.261719 13.085938 -8.140625 C 12.957031 -7.953125 12.878906 -7.757812 12.773438 -7.539062 C 12.726562 -7.367188 12.597656 -7.175781 12.515625 -6.929688 C 12.4375 -6.734375 12.433594 -6.503906 12.378906 -6.28125 C 12.296875 -6.035156 12.160156 -5.796875 12.078125 -5.550781 C 12 -5.355469 11.972656 -5.152344 11.917969 -4.929688 C 11.863281 -4.707031 11.757812 -4.488281 11.703125 -4.265625 C 11.65625 -4.089844 11.554688 -3.925781 11.507812 -3.75 L 11.320312 -2.929688 C 11.203125 -2.609375 11.0625 -2.320312 10.964844 -1.972656 C 10.910156 -1.75 10.882812 -1.546875 10.777344 -1.332031 C 10.714844 -1.058594 10.648438 -0.730469 10.535156 -0.464844 C 10.453125 -0.21875 10.324219 -0.03125 10.167969 0.179688 C 10.042969 0.371094 9.890625 0.53125 9.722656 0.660156 C 9.605469 0.75 9.542969 0.84375 9.429688 0.929688 L 9.371094 0.972656 C 9.285156 1.039062 9.183594 1.027344 9.105469 1.042969 C 9 1.078125 8.867188 1.089844 8.734375 1.148438 C 8.601562 1.15625 8.445312 1.1875 8.265625 1.1875 C 8.035156 1.183594 7.832031 1.15625 7.609375 1.101562 C 7.464844 1.03125 7.261719 1.003906 7.09375 0.90625 C 6.878906 0.800781 6.640625 0.667969 6.429688 0.511719 C 6.238281 0.382812 6.109375 0.210938 5.976562 0.0390625 C 5.859375 -0.0507812 5.792969 -0.136719 5.707031 -0.25 C 5.683594 -0.28125 5.5625 -0.320312 5.539062 -0.351562 C 5.519531 -0.378906 5.496094 -0.40625 5.496094 -0.40625 L 5.476562 -0.4375 C 5.410156 -0.523438 5.421875 -0.621094 5.355469 -0.707031 C 5.3125 -0.765625 5.273438 -0.875 5.210938 -0.957031 C 5.1875 -0.988281 5.1875 -0.988281 5.164062 -1.015625 L 5.078125 -1.128906 C 5.054688 -1.160156 5.035156 -1.1875 5.011719 -1.214844 L 4.96875 -1.273438 C 4.902344 -1.359375 4.777344 -1.582031 4.707031 -1.617188 C 4.605469 -1.628906 4.546875 -1.585938 4.460938 -1.519531 C 4.40625 -1.476562 4.273438 -1.464844 4.21875 -1.421875 L 1.535156 0.636719 C 1.449219 0.703125 1.40625 0.828125 1.34375 0.921875 C 1.226562 1.007812 1.214844 1.109375 1.222656 1.238281 C 1.238281 1.316406 1.246094 1.449219 1.285156 1.554688 C 1.335938 1.742188 1.417969 1.90625 1.5 2.070312 C 1.582031 2.234375 1.691406 2.378906 1.726562 2.484375 C 1.808594 2.652344 1.859375 2.835938 1.921875 2.972656 L 1.964844 3.03125 C 1.984375 3.058594 2.058594 3.09375 2.101562 3.152344 L 2.578125 3.832031 C 2.578125 3.832031 2.578125 3.832031 2.601562 3.859375 L 2.65625 3.816406 C 2.65625 3.816406 2.679688 3.84375 2.679688 3.84375 L 2.789062 3.988281 C 2.804688 4.066406 2.824219 4.09375 2.871094 4.152344 L 2.890625 4.179688 C 3.074219 4.359375 3.234375 4.507812 3.445312 4.664062 C 3.699219 4.875 4.015625 4.996094 4.328125 5.164062 C 4.589844 5.328125 4.792969 5.535156 5.039062 5.617188 C 5.234375 5.695312 5.429688 5.769531 5.601562 5.820312 L 5.949219 5.917969 C 6.121094 5.964844 6.316406 6.042969 6.519531 6.070312 C 6.644531 6.109375 6.792969 6.128906 6.945312 6.148438 C 7.167969 6.207031 7.394531 6.261719 7.675781 6.273438 C 7.773438 6.285156 7.90625 6.277344 8.035156 6.265625 C 8.234375 6.292969 8.445312 6.269531 8.652344 6.246094 C 8.882812 6.25 9.078125 6.148438 9.3125 6.101562 C 9.628906 6.039062 9.960938 6.058594 10.257812 5.96875 C 10.578125 5.855469 10.902344 5.746094 11.203125 5.605469 L 11.695312 5.363281 C 11.859375 5.28125 12.003906 5.171875 12.148438 5.0625 C 12.28125 5.003906 12.398438 4.914062 12.53125 4.855469 L 12.539062 4.804688 C 12.675781 4.746094 12.789062 4.660156 12.902344 4.570312 L 13.246094 4.308594 C 13.332031 4.242188 13.367188 4.167969 13.453125 4.105469 C 13.515625 4.007812 13.625 3.972656 13.6875 3.878906 C 13.839844 3.71875 14.015625 3.535156 14.144531 3.347656 L 14.582031 2.738281 C 14.648438 2.644531 14.6875 2.519531 14.730469 2.398438 C 14.828125 2.230469 14.933594 2.011719 15.011719 1.816406 C 15.074219 1.722656 15.117188 1.601562 15.160156 1.476562 C 15.207031 1.304688 15.300781 1.1875 15.347656 1.015625 C 15.398438 0.84375 15.371094 0.632812 15.472656 0.464844 C 15.5 0.265625 15.597656 0.0976562 15.675781 -0.0976562 L 15.839844 -0.589844 C 15.867188 -0.789062 15.96875 -0.957031 16.042969 -1.152344 C 16.097656 -1.375 16.125 -1.578125 16.210938 -1.824219 C 16.257812 -1.996094 16.285156 -2.199219 16.359375 -2.394531 C 16.417969 -2.617188 16.464844 -2.792969 16.519531 -3.015625 L 16.644531 -3.5625 C 16.714844 -3.710938 16.761719 -3.882812 16.8125 -4.054688 C 16.886719 -4.25 16.964844 -4.445312 16.992188 -4.648438 C 17.066406 -4.84375 17.167969 -5.011719 17.214844 -5.183594 C 17.257812 -5.308594 17.320312 -5.402344 17.390625 -5.546875 L 17.660156 -6.023438 C 17.78125 -6.164062 17.878906 -6.328125 18.050781 -6.460938 L 18.1875 -6.519531 C 18.328125 -6.628906 18.539062 -6.652344 18.726562 -6.707031 C 18.832031 -6.742188 18.894531 -6.835938 19.003906 -6.875 C 19.140625 -6.933594 19.292969 -6.914062 19.421875 -6.921875 L 19.832031 -6.917969 C 19.984375 -6.898438 20.15625 -6.851562 20.300781 -6.78125 C 20.503906 -6.753906 20.648438 -6.683594 20.820312 -6.636719 C 21.007812 -6.507812 21.199219 -6.378906 21.378906 -6.203125 C 21.46875 -6.089844 21.5625 -6.023438 21.628906 -5.9375 L 21.695312 -5.851562 C 21.710938 -5.773438 21.746094 -5.667969 21.789062 -5.609375 L 21.8125 -5.582031 C 21.929688 -5.488281 22.03125 -5.476562 22.136719 -5.511719 C 22.214844 -5.527344 22.273438 -5.570312 22.332031 -5.617188 C 22.816406 -5.988281 23.324219 -6.332031 23.808594 -6.707031 L 23.765625 -6.761719 C 24.191406 -7.089844 24.621094 -7.421875 25.050781 -7.75 L 25.222656 -7.878906 C 25.304688 -7.945312 25.414062 -7.984375 25.457031 -8.105469 C 25.460938 -8.15625 25.417969 -8.214844 25.425781 -8.265625 C 25.386719 -8.371094 25.371094 -8.449219 25.328125 -8.507812 C 25.359375 -8.53125 25.335938 -8.558594 25.335938 -8.558594 C 25.3125 -8.585938 25.285156 -8.566406 25.261719 -8.59375 C 25.242188 -8.621094 25.21875 -8.652344 25.199219 -8.679688 L 25.175781 -8.707031 C 25.175781 -8.707031 24.894531 -9.308594 24.933594 -9.203125 Z M 24.933594 -9.203125 "/></g></g></g><g fill="#6c6dd6" fill-opacity="1"><g transform="translate(117.688639, 225.846935)"><g><path d="M 25.058594 -4.300781 C 24.554688 -3.738281 23.996094 -3.171875 23.492188 -2.609375 C 22.960938 -2.019531 22.457031 -1.457031 21.980469 -0.871094 C 21.859375 -0.738281 21.738281 -0.605469 21.613281 -0.519531 C 21.519531 -0.414062 21.417969 -0.359375 21.324219 -0.25 C 21.199219 -0.167969 21.132812 -0.0351562 21.03125 0.0195312 L 20.34375 0.464844 C 20.09375 0.578125 19.84375 0.695312 19.570312 0.785156 C 19.296875 0.929688 19.019531 1.019531 18.71875 1.085938 C 18.519531 1.148438 18.242188 1.238281 18.015625 1.277344 C 17.789062 1.316406 17.582031 1.277344 17.355469 1.3125 C 17.175781 1.296875 16.996094 1.28125 16.84375 1.289062 C 16.691406 1.296875 16.566406 1.382812 16.414062 1.390625 L 16.054688 1.304688 C 15.796875 1.269531 15.566406 1.257812 15.359375 1.214844 C 15.230469 1.199219 15.152344 1.125 15.050781 1.128906 C 14.945312 1.085938 14.816406 1.066406 14.710938 1.019531 L 14.535156 1.003906 C 14.457031 0.984375 14.382812 1.015625 14.304688 1.042969 L 14.113281 1.257812 C 13.535156 1.898438 12.882812 2.523438 12.304688 3.164062 C 11.703125 3.832031 11.152344 4.5 10.550781 5.171875 L 8.792969 7.125 C 8.722656 7.207031 8.699219 7.285156 8.628906 7.363281 C 8.53125 7.421875 8.378906 7.429688 8.277344 7.433594 C 8.226562 7.4375 8.199219 7.414062 8.171875 7.386719 C 8.09375 7.367188 8.015625 7.34375 7.9375 7.273438 L 6.488281 5.972656 C 5.980469 5.515625 5.523438 5.058594 5.039062 4.625 C 4.960938 4.550781 4.957031 4.5 4.902344 4.402344 C 4.84375 4.304688 4.839844 4.203125 4.882812 4.097656 C 4.90625 4.019531 4.925781 3.941406 5 3.863281 C 5.070312 3.78125 5.140625 3.648438 5.238281 3.542969 C 5.789062 2.925781 6.398438 2.359375 6.976562 1.714844 C 7.527344 1.101562 8.027344 0.4375 8.605469 -0.207031 C 9.160156 -0.824219 9.765625 -1.390625 10.34375 -2.03125 C 10.390625 -2.085938 10.464844 -2.167969 10.484375 -2.246094 C 10.605469 -2.378906 10.648438 -2.535156 10.589844 -2.683594 C 10.53125 -2.78125 10.503906 -2.855469 10.496094 -2.957031 C 10.441406 -3.058594 10.410156 -3.183594 10.351562 -3.28125 C 10.289062 -3.484375 10.152344 -3.652344 10.117188 -3.882812 C 10.027344 -4.105469 10.066406 -4.363281 10.027344 -4.589844 C 9.988281 -4.816406 10.003906 -5.046875 9.992188 -5.25 C 9.976562 -5.558594 9.960938 -5.863281 9.992188 -6.167969 C 10.003906 -6.449219 9.992188 -6.703125 10.050781 -6.988281 C 10.113281 -7.273438 10.199219 -7.53125 10.3125 -7.816406 C 10.351562 -8.023438 10.421875 -8.207031 10.488281 -8.386719 C 10.648438 -8.726562 10.808594 -9.066406 10.992188 -9.382812 C 11.113281 -9.519531 11.261719 -9.628906 11.355469 -9.785156 C 11.476562 -9.917969 11.570312 -10.078125 11.714844 -10.1875 C 11.738281 -10.214844 11.683594 -10.3125 11.730469 -10.367188 C 11.730469 -10.367188 11.808594 -10.34375 11.808594 -10.34375 L 11.953125 -10.507812 C 12.601562 -11.230469 13.175781 -11.972656 13.824219 -12.695312 C 14.472656 -13.421875 15.152344 -14.117188 15.777344 -14.816406 C 16.425781 -15.539062 17.101562 -16.238281 17.726562 -16.933594 C 17.777344 -16.988281 17.828125 -16.988281 17.875 -17.042969 C 17.945312 -17.125 18.015625 -17.253906 18.140625 -17.289062 C 18.265625 -17.320312 18.367188 -17.375 18.445312 -17.304688 C 18.550781 -17.257812 18.605469 -17.210938 18.683594 -17.136719 C 19.085938 -16.777344 19.511719 -16.441406 19.941406 -16.058594 L 20.183594 -15.789062 C 20.292969 -15.695312 20.394531 -15.648438 20.503906 -15.554688 C 20.878906 -15.214844 21.179688 -14.851562 21.527344 -14.539062 C 21.582031 -14.488281 21.683594 -14.496094 21.707031 -14.46875 C 21.820312 -14.324219 21.828125 -14.121094 21.734375 -13.960938 C 21.691406 -13.859375 21.566406 -13.824219 21.464844 -13.769531 C 21.441406 -13.742188 21.472656 -13.667969 21.449219 -13.640625 C 20.820312 -12.945312 20.144531 -12.246094 19.496094 -11.523438 C 18.871094 -10.824219 18.195312 -10.125 17.542969 -9.402344 C 16.917969 -8.707031 16.296875 -7.960938 15.648438 -7.238281 C 15.550781 -7.128906 15.480469 -7 15.359375 -6.863281 C 15.242188 -6.679688 15.152344 -6.472656 15.039062 -6.234375 C 15.042969 -6.132812 14.921875 -6.050781 14.902344 -5.921875 C 14.878906 -5.84375 14.964844 -5.722656 14.945312 -5.59375 L 14.949219 -5.492188 C 14.980469 -5.367188 14.964844 -5.238281 14.972656 -5.085938 C 15.0625 -4.808594 15.15625 -4.535156 15.34375 -4.316406 C 15.425781 -4.191406 15.605469 -4.175781 15.714844 -4.078125 C 15.875 -3.933594 16.03125 -3.84375 16.238281 -3.800781 C 16.449219 -3.710938 16.679688 -3.648438 16.960938 -3.636719 C 17.113281 -3.644531 17.265625 -3.652344 17.417969 -3.710938 C 17.617188 -3.773438 17.789062 -3.859375 17.9375 -3.96875 C 17.984375 -4.023438 18.058594 -4.101562 18.132812 -4.132812 C 18.207031 -4.214844 18.332031 -4.246094 18.425781 -4.351562 C 18.980469 -4.96875 19.507812 -5.609375 20.058594 -6.226562 C 20.613281 -6.839844 21.140625 -7.480469 21.71875 -8.125 C 22.152344 -8.605469 22.632812 -9.089844 23.089844 -9.597656 C 23.546875 -10.109375 24.058594 -10.570312 24.492188 -11.050781 C 24.5625 -11.132812 24.558594 -11.234375 24.632812 -11.3125 C 24.753906 -11.394531 24.980469 -11.433594 25.113281 -11.363281 C 25.191406 -11.34375 25.242188 -11.296875 25.296875 -11.246094 C 25.78125 -10.8125 26.214844 -10.328125 26.695312 -9.894531 C 27.203125 -9.4375 27.710938 -9.03125 28.191406 -8.597656 L 28.355469 -8.402344 C 28.386719 -8.277344 28.394531 -8.175781 28.324219 -8.042969 C 28.277344 -7.992188 28.253906 -7.914062 28.183594 -7.832031 C 27.507812 -7.082031 26.839844 -6.28125 26.164062 -5.53125 C 25.804688 -5.128906 25.390625 -4.726562 25.03125 -4.324219 Z M 25.058594 -4.300781 "/></g></g></g><g fill="#6c6dd6" fill-opacity="1"><g transform="translate(133.319273, 239.584971)"><g><path d="M 5.734375 3.089844 C 5.324219 2.867188 4.898438 2.675781 4.453125 2.433594 C 3.792969 2.070312 3.140625 1.757812 2.480469 1.394531 C 2.414062 1.359375 2.355469 1.246094 2.308594 1.179688 C 2.246094 1.144531 2.152344 1.09375 2.171875 0.980469 C 2.1875 0.949219 2.207031 0.917969 2.191406 0.867188 L 2.242188 0.855469 C 2.257812 0.824219 2.308594 0.808594 2.308594 0.808594 C 2.324219 0.777344 2.261719 0.742188 2.261719 0.742188 L 2.308594 0.726562 C 2.328125 0.695312 2.34375 0.664062 2.34375 0.664062 L 2.382812 0.519531 C 2.8125 -0.269531 3.257812 -1.007812 3.691406 -1.800781 C 4.105469 -2.558594 4.566406 -3.332031 4.980469 -4.089844 C 5.414062 -4.878906 5.828125 -5.636719 6.257812 -6.425781 L 7.519531 -8.734375 C 7.949219 -9.523438 8.300781 -10.316406 8.730469 -11.105469 L 9.992188 -13.414062 C 10.421875 -14.203125 10.867188 -14.941406 11.300781 -15.734375 C 11.714844 -16.492188 12.144531 -17.28125 12.558594 -18.039062 L 13.835938 -20.378906 C 13.851562 -20.410156 13.902344 -20.421875 13.886719 -20.472656 C 13.90625 -20.503906 13.890625 -20.554688 13.90625 -20.585938 C 13.925781 -20.617188 14.003906 -20.613281 14.003906 -20.613281 C 14.039062 -20.675781 14.042969 -20.757812 14.078125 -20.820312 C 14.144531 -20.867188 14.242188 -20.894531 14.320312 -20.890625 C 14.386719 -20.855469 14.433594 -20.871094 14.464844 -20.855469 L 14.65625 -20.75 C 14.78125 -20.683594 14.90625 -20.53125 15.03125 -20.464844 C 15.601562 -20.152344 16.28125 -19.820312 16.832031 -19.480469 C 16.910156 -19.394531 16.90625 -19.316406 16.96875 -19.28125 C 17.597656 -18.855469 18.148438 -18.433594 18.707031 -17.882812 C 19.175781 -17.460938 19.59375 -17.027344 20.011719 -16.511719 C 20.058594 -16.445312 20.132812 -16.363281 20.132812 -16.28125 L 20.175781 -16.136719 C 20.1875 -16.085938 20.253906 -16.054688 20.316406 -16.019531 C 20.46875 -15.851562 20.621094 -15.523438 20.738281 -15.292969 L 21.085938 -14.574219 C 21.144531 -14.457031 21.171875 -14.359375 21.234375 -14.246094 L 21.277344 -14.097656 C 21.367188 -13.886719 21.4375 -13.640625 21.492188 -13.367188 C 21.519531 -13.269531 21.503906 -13.238281 21.550781 -13.171875 C 21.578125 -13.074219 21.640625 -13.039062 21.703125 -13.003906 C 21.765625 -12.96875 21.878906 -12.949219 22.046875 -13.105469 C 22.0625 -13.136719 22.066406 -13.214844 22.101562 -13.28125 C 22.375 -13.703125 22.617188 -14.148438 22.855469 -14.589844 C 22.996094 -14.84375 23.148438 -15.046875 23.285156 -15.300781 C 23.304688 -15.332031 23.351562 -15.34375 23.367188 -15.375 L 23.386719 -15.40625 C 23.386719 -15.40625 23.355469 -15.425781 23.355469 -15.425781 L 23.40625 -15.519531 C 23.421875 -15.550781 23.425781 -15.632812 23.492188 -15.679688 C 23.527344 -15.742188 23.640625 -15.800781 23.722656 -15.796875 C 23.785156 -15.765625 23.800781 -15.714844 23.863281 -15.679688 C 24.402344 -15.386719 24.988281 -15.109375 25.554688 -14.796875 L 27.386719 -13.796875 C 27.449219 -13.761719 27.480469 -13.664062 27.527344 -13.597656 C 27.539062 -13.550781 27.570312 -13.53125 27.554688 -13.5 C 27.550781 -13.421875 27.515625 -13.359375 27.480469 -13.292969 C 27.449219 -13.230469 27.476562 -13.132812 27.441406 -13.070312 C 26.871094 -12.027344 26.839844 -12.042969 26.273438 -11.003906 L 25.132812 -8.917969 C 24.5625 -7.875 24.53125 -7.890625 23.960938 -6.847656 C 23.375 -5.773438 23.4375 -5.738281 22.871094 -4.699219 C 21.835938 -2.800781 20.765625 -0.921875 19.730469 0.972656 C 19.300781 1.761719 18.835938 2.535156 18.40625 3.324219 C 17.976562 4.113281 17.589844 4.972656 17.15625 5.761719 C 16.726562 6.550781 16.265625 7.324219 15.832031 8.113281 C 15.796875 8.175781 15.777344 8.289062 15.761719 8.320312 C 15.660156 8.429688 15.511719 8.472656 15.371094 8.433594 L 15.164062 8.28125 C 14.722656 8.039062 14.296875 7.765625 13.855469 7.527344 C 13.222656 7.179688 12.542969 6.851562 11.878906 6.488281 C 11.816406 6.453125 11.769531 6.386719 11.707031 6.351562 C 11.613281 6.300781 11.535156 6.21875 11.554688 6.105469 C 11.574219 6.074219 11.671875 6.046875 11.6875 6.011719 C 11.792969 5.742188 11.851562 5.488281 11.988281 5.234375 C 12.023438 5.171875 12.121094 5.144531 12.15625 5.082031 L 12.363281 4.699219 C 12.449219 4.542969 12.472656 4.351562 12.542969 4.222656 C 12.578125 4.160156 12.59375 4.128906 12.609375 4.097656 L 12.660156 4.082031 C 12.660156 4.082031 12.644531 4.035156 12.644531 4.035156 L 12.613281 4.015625 C 12.679688 3.972656 12.761719 3.894531 12.796875 3.832031 C 13.699219 2.027344 14.636719 0.238281 15.414062 -1.632812 C 15.445312 -1.695312 15.53125 -1.773438 15.53125 -1.855469 C 15.796875 -2.488281 15.949219 -3.144531 16.183594 -3.796875 L 16.199219 -3.828125 C 16.363281 -4.273438 16.539062 -4.75 16.667969 -5.210938 C 16.726562 -5.46875 16.734375 -5.707031 16.777344 -5.933594 C 16.828125 -6.027344 16.746094 -6.03125 16.75 -6.109375 C 16.804688 -6.285156 16.90625 -6.394531 16.925781 -6.507812 C 17.03125 -7.148438 17.054688 -7.792969 17.078125 -8.433594 C 17.109375 -8.5 17.109375 -8.5 17.097656 -8.546875 C 17.101562 -8.707031 17.109375 -8.871094 17.113281 -9.03125 L 17.089844 -9.660156 C 17.105469 -9.691406 17.089844 -9.738281 17.078125 -9.789062 C 17.078125 -9.789062 17.046875 -9.804688 17.03125 -9.855469 L 17.003906 -9.953125 C 16.933594 -10.277344 16.949219 -10.679688 16.847656 -11.019531 C 16.851562 -11.101562 16.757812 -11.152344 16.726562 -11.25 L 16.683594 -11.398438 C 16.625 -11.59375 16.585938 -11.820312 16.484375 -12.082031 C 16.410156 -12.324219 16.292969 -12.554688 16.15625 -12.835938 C 16.078125 -12.917969 16.019531 -13.03125 15.957031 -13.148438 C 15.925781 -13.164062 15.945312 -13.195312 15.914062 -13.214844 C 15.898438 -13.261719 15.804688 -13.316406 15.738281 -13.347656 L 15.722656 -13.316406 C 15.628906 -13.371094 15.5 -13.4375 15.417969 -13.359375 C 15.371094 -13.347656 15.378906 -13.21875 15.296875 -13.140625 C 15.175781 -12.917969 15.023438 -12.714844 14.886719 -12.460938 L 14.816406 -12.335938 C 14.421875 -11.609375 14.054688 -10.863281 13.65625 -10.136719 C 13.277344 -9.441406 12.851562 -8.734375 12.453125 -8.007812 C 12.054688 -7.28125 11.691406 -6.535156 11.292969 -5.808594 C 10.914062 -5.113281 10.519531 -4.386719 10.121094 -3.660156 L 8.929688 -1.480469 C 8.550781 -0.785156 8.089844 -0.09375 7.695312 0.632812 L 6.503906 2.8125 L 6.367188 3.066406 C 6.332031 3.128906 6.359375 3.226562 6.3125 3.242188 C 6.226562 3.320312 6.128906 3.347656 6.035156 3.296875 C 5.921875 3.277344 5.796875 3.207031 5.703125 3.15625 Z M 5.734375 3.089844 "/></g></g></g><g fill="#6c6dd6" fill-opacity="1"><g transform="translate(154.129768, 250.384865)"><g><path d="M 20.46875 -20.773438 C 20.746094 -20.699219 21.078125 -20.683594 21.355469 -20.609375 C 21.53125 -20.5625 21.683594 -20.445312 21.839844 -20.328125 C 21.933594 -20.265625 22.109375 -20.21875 22.148438 -20.097656 C 22.175781 -20.050781 22.15625 -19.984375 22.183594 -19.9375 C 22.222656 -19.816406 22.230469 -19.703125 22.238281 -19.589844 C 22.230469 -19.144531 22.140625 -18.683594 22.011719 -18.195312 C 21.890625 -17.742188 21.722656 -17.265625 21.609375 -16.847656 L 21.566406 -16.675781 C 21.554688 -16.640625 21.582031 -16.597656 21.570312 -16.5625 C 21.550781 -16.492188 21.535156 -16.421875 21.515625 -16.351562 L 21.4375 -16.335938 C 21.324219 -15.917969 21.0625 -15.503906 20.632812 -15.433594 C 20.476562 -15.402344 20.347656 -15.476562 20.234375 -15.46875 C 20.128906 -15.496094 20.015625 -15.488281 19.910156 -15.515625 C 18.945312 -15.664062 18.03125 -15.875 17.089844 -15.980469 C 16.148438 -16.082031 15.234375 -16.144531 14.238281 -15.777344 C 13.253906 -15.445312 12.304688 -14.957031 11.523438 -14.269531 C 11.460938 -14.175781 11.335938 -14.136719 11.238281 -14.050781 L 10.875 -13.664062 C 10.660156 -13.421875 10.550781 -13.152344 10.371094 -12.902344 C 10.191406 -12.652344 10.117188 -12.375 9.980469 -12.152344 C 9.847656 -11.925781 9.609375 -11.730469 9.507812 -11.496094 C 9.398438 -11.226562 9.332031 -10.984375 9.257812 -10.707031 C 9.125 -10.21875 9.039062 -9.757812 8.976562 -9.253906 C 9.003906 -9.207031 9.109375 -9.179688 9.132812 -9.136719 C 9.101562 -8.882812 9.082031 -8.664062 9.09375 -8.4375 C 9.160156 -7.710938 9.15625 -7.003906 9.386719 -6.34375 C 9.585938 -5.695312 9.84375 -4.992188 10.242188 -4.398438 C 10.355469 -4.257812 10.519531 -4.175781 10.605469 -4.078125 C 11.371094 -3.050781 12.398438 -2.292969 13.566406 -1.789062 C 13.730469 -1.707031 13.867188 -1.523438 14.042969 -1.476562 C 14.390625 -1.382812 14.964844 -1.300781 15.488281 -1.160156 C 16.148438 -0.984375 16.78125 -0.703125 16.902344 -0.183594 C 16.953125 -0.0976562 17.046875 -0.0351562 17.019531 0.0703125 C 17.007812 0.105469 17.035156 0.148438 17.015625 0.21875 C 16.996094 0.289062 16.898438 0.375 16.882812 0.445312 C 16.863281 0.511719 16.921875 0.566406 16.902344 0.636719 C 16.902344 0.636719 16.929688 0.679688 16.917969 0.714844 C 16.867188 0.773438 16.8125 0.835938 16.828125 0.914062 C 16.820312 0.949219 16.890625 0.96875 16.878906 1.003906 C 16.710938 1.628906 16.472656 2.234375 16.304688 2.859375 C 16.296875 2.894531 16.320312 2.941406 16.320312 2.941406 C 16.265625 3 16.214844 3.058594 16.203125 3.09375 C 16.230469 3.140625 16.1875 3.164062 16.140625 3.191406 C 16.132812 3.226562 16.21875 3.324219 16.199219 3.390625 C 16.152344 3.566406 16.011719 3.675781 15.894531 3.832031 C 15.535156 4.332031 14.8125 4.25 14.1875 4.082031 C 13.839844 3.988281 13.5 3.859375 13.222656 3.785156 C 13.152344 3.765625 13.128906 3.722656 13.058594 3.703125 L 13.023438 3.691406 C 12.988281 3.683594 12.9375 3.742188 12.902344 3.734375 C 12.144531 3.492188 11.445312 3.191406 10.75 2.855469 C 10.101562 2.496094 9.4375 2.054688 8.851562 1.601562 C 8.230469 1.136719 7.65625 0.644531 7.097656 0.0859375 L 7.117188 0.015625 C 6.484375 -0.679688 5.9375 -1.421875 5.472656 -2.179688 C 5.015625 -2.976562 4.601562 -3.792969 4.320312 -4.691406 C 4.03125 -5.550781 3.898438 -6.445312 3.808594 -7.363281 C 3.777344 -7.519531 3.824219 -7.695312 3.792969 -7.851562 C 3.753906 -8.273438 3.648438 -8.710938 3.691406 -9.144531 C 3.699219 -9.441406 3.808594 -9.710938 3.855469 -10.035156 C 3.871094 -10.21875 3.8125 -10.417969 3.859375 -10.59375 C 3.84375 -10.671875 3.828125 -10.75 3.84375 -10.820312 C 3.863281 -10.890625 3.960938 -10.976562 3.953125 -11.089844 C 4.164062 -12.003906 4.40625 -12.90625 4.789062 -13.773438 C 4.871094 -13.9375 4.976562 -14.058594 5.050781 -14.1875 C 5.121094 -14.316406 5.125 -14.464844 5.195312 -14.59375 C 5.269531 -14.722656 5.351562 -14.890625 5.421875 -15.019531 L 5.601562 -15.269531 C 5.726562 -15.457031 5.820312 -15.65625 5.945312 -15.847656 C 6.0625 -16.003906 6.117188 -16.210938 6.234375 -16.367188 C 6.644531 -16.925781 7.175781 -17.378906 7.675781 -17.84375 C 8.136719 -18.3125 8.71875 -18.679688 9.277344 -19.089844 C 9.410156 -19.164062 9.429688 -19.382812 9.5625 -19.457031 C 9.652344 -19.507812 9.800781 -19.507812 9.886719 -19.558594 C 10.613281 -20.035156 11.421875 -20.414062 12.25 -20.710938 C 13.074219 -21.011719 13.988281 -21.214844 14.835938 -21.320312 C 15.730469 -21.453125 16.605469 -21.515625 17.484375 -21.464844 C 18.070312 -21.417969 18.589844 -21.277344 19.148438 -21.128906 Z M 20.46875 -20.773438 "/></g></g></g><g fill="#6c6dd6" fill-opacity="1"><g transform="translate(174.217797, 255.184713)"><g/></g></g><g fill="#6c6dd6" fill-opacity="1"><g transform="translate(184.982753, 256.200326)"><g><path d="M 6.945312 -25.652344 C 6.695312 -25.644531 6.445312 -25.5625 6.230469 -25.554688 C 6.195312 -25.554688 6.195312 -25.554688 6.15625 -25.550781 L 6.011719 -25.546875 C 5.976562 -25.542969 5.941406 -25.542969 5.90625 -25.542969 L 5.832031 -25.539062 C 5.691406 -25.535156 5.511719 -25.527344 5.332031 -25.484375 C 5.046875 -25.402344 4.761719 -25.285156 4.476562 -25.164062 C 4.230469 -25.085938 3.945312 -24.964844 3.699219 -24.8125 C 3.453125 -24.660156 3.167969 -24.578125 2.957031 -24.390625 C 2.785156 -24.238281 2.574219 -24.050781 2.402344 -23.863281 L 2.441406 -23.792969 C 2.335938 -23.71875 2.191406 -23.675781 2.160156 -23.601562 C 2.160156 -23.601562 2.195312 -23.570312 2.195312 -23.53125 L 2.089844 -23.457031 C 1.988281 -23.34375 1.917969 -23.269531 1.8125 -23.160156 L 1.4375 -22.640625 C 1.300781 -22.417969 1.164062 -22.199219 1.066406 -21.941406 C 0.996094 -21.867188 1 -21.757812 0.933594 -21.648438 C 0.832031 -21.464844 0.730469 -21.246094 0.667969 -21.027344 C 0.566406 -20.808594 0.578125 -20.554688 0.511719 -20.335938 L 0.417969 -19.972656 C 0.390625 -19.792969 0.285156 -19.644531 0.257812 -19.460938 C 0.226562 -19.28125 0.269531 -19.101562 0.277344 -18.921875 C 0.246094 -18.8125 0.25 -18.667969 0.21875 -18.523438 C 0.21875 -18.523438 0.257812 -18.488281 0.222656 -18.488281 C 0.226562 -18.34375 0.230469 -18.199219 0.269531 -18.09375 C 0.277344 -17.914062 0.246094 -17.769531 0.253906 -17.625 C 0.253906 -17.554688 0.332031 -17.449219 0.332031 -17.375 L 0.464844 -16.804688 C 0.503906 -16.660156 0.476562 -16.480469 0.515625 -16.339844 C 0.597656 -16.125 0.746094 -15.949219 0.824219 -15.773438 C 0.867188 -15.628906 0.871094 -15.488281 0.949219 -15.382812 C 1.027344 -15.167969 1.140625 -14.992188 1.257812 -14.78125 C 1.371094 -14.640625 1.449219 -14.425781 1.601562 -14.214844 C 1.71875 -14.039062 1.902344 -13.902344 2.054688 -13.730469 C 2.203125 -13.519531 2.320312 -13.269531 2.472656 -13.058594 C 2.589844 -12.882812 2.738281 -12.746094 2.886719 -12.570312 C 3.039062 -12.394531 3.15625 -12.183594 3.304688 -12.007812 C 3.417969 -11.871094 3.496094 -11.691406 3.609375 -11.550781 L 4.171875 -10.925781 C 4.363281 -10.644531 4.519531 -10.359375 4.746094 -10.082031 C 4.894531 -9.90625 5.042969 -9.769531 5.160156 -9.554688 C 5.347656 -9.347656 5.574219 -9.101562 5.726562 -8.855469 C 5.878906 -8.644531 5.957031 -8.433594 6.039062 -8.183594 C 6.121094 -7.96875 6.164062 -7.753906 6.171875 -7.539062 C 6.175781 -7.394531 6.214844 -7.289062 6.222656 -7.144531 L 6.222656 -7.074219 C 6.226562 -6.964844 6.160156 -6.890625 6.125 -6.816406 C 6.09375 -6.707031 6.027344 -6.597656 5.996094 -6.453125 C 5.925781 -6.34375 5.859375 -6.195312 5.757812 -6.046875 C 5.621094 -5.863281 5.480469 -5.714844 5.308594 -5.5625 C 5.164062 -5.484375 5.027344 -5.335938 4.851562 -5.257812 C 4.636719 -5.140625 4.390625 -5.023438 4.140625 -4.945312 C 3.929688 -4.863281 3.710938 -4.855469 3.496094 -4.847656 C 3.355469 -4.804688 3.246094 -4.800781 3.101562 -4.796875 C 3.066406 -4.796875 2.960938 -4.71875 2.925781 -4.71875 C 2.886719 -4.71875 2.851562 -4.714844 2.851562 -4.714844 L 2.816406 -4.714844 C 2.707031 -4.710938 2.632812 -4.78125 2.527344 -4.777344 C 2.453125 -4.773438 2.34375 -4.804688 2.238281 -4.800781 C 2.199219 -4.800781 2.199219 -4.800781 2.164062 -4.796875 L 2.019531 -4.792969 C 1.984375 -4.792969 1.949219 -4.789062 1.914062 -4.789062 L 1.839844 -4.785156 C 1.734375 -4.78125 1.480469 -4.808594 1.410156 -4.769531 C 1.339844 -4.695312 1.34375 -4.625 1.347656 -4.515625 C 1.351562 -4.445312 1.28125 -4.335938 1.285156 -4.261719 L 1.410156 -0.878906 C 1.414062 -0.773438 1.488281 -0.667969 1.527344 -0.558594 C 1.535156 -0.417969 1.609375 -0.347656 1.71875 -0.28125 C 1.792969 -0.246094 1.902344 -0.179688 2.011719 -0.144531 C 2.195312 -0.0820312 2.375 -0.0507812 2.558594 -0.0234375 C 2.738281 0.0078125 2.917969 0 3.027344 0.03125 C 3.207031 0.0625 3.390625 0.128906 3.535156 0.15625 L 3.609375 0.15625 C 3.644531 0.152344 3.714844 0.117188 3.785156 0.113281 L 4.617188 0.117188 C 4.617188 0.117188 4.617188 0.117188 4.652344 0.117188 L 4.648438 0.046875 C 4.648438 0.046875 4.683594 0.0429688 4.683594 0.0429688 L 4.863281 0.0390625 C 4.9375 0.0703125 4.972656 0.0703125 5.046875 0.0664062 L 5.082031 0.0664062 C 5.332031 0.0195312 5.546875 -0.0234375 5.796875 -0.105469 C 6.117188 -0.1875 6.398438 -0.378906 6.71875 -0.535156 C 7 -0.652344 7.289062 -0.699219 7.496094 -0.851562 C 7.671875 -0.964844 7.847656 -1.082031 7.988281 -1.195312 L 8.269531 -1.421875 C 8.410156 -1.535156 8.585938 -1.648438 8.722656 -1.796875 C 8.828125 -1.875 8.933594 -1.984375 9.035156 -2.097656 C 9.210938 -2.246094 9.386719 -2.398438 9.558594 -2.621094 C 9.628906 -2.695312 9.695312 -2.804688 9.761719 -2.917969 C 9.902344 -3.066406 10.003906 -3.25 10.105469 -3.433594 C 10.242188 -3.617188 10.269531 -3.835938 10.371094 -4.054688 C 10.503906 -4.347656 10.710938 -4.609375 10.808594 -4.898438 C 10.902344 -5.226562 11 -5.554688 11.058594 -5.882812 L 11.148438 -6.425781 C 11.175781 -6.605469 11.171875 -6.785156 11.164062 -6.96875 C 11.195312 -7.113281 11.1875 -7.257812 11.21875 -7.402344 L 11.183594 -7.4375 C 11.214844 -7.582031 11.207031 -7.726562 11.203125 -7.867188 L 11.1875 -8.300781 C 11.183594 -8.410156 11.144531 -8.480469 11.140625 -8.585938 C 11.101562 -8.695312 11.132812 -8.804688 11.09375 -8.910156 C 11.046875 -9.125 11.003906 -9.375 10.921875 -9.585938 L 10.679688 -10.300781 C 10.640625 -10.40625 10.566406 -10.511719 10.488281 -10.617188 C 10.410156 -10.792969 10.292969 -11.003906 10.179688 -11.179688 C 10.140625 -11.289062 10.0625 -11.394531 9.988281 -11.5 C 9.875 -11.636719 9.832031 -11.78125 9.71875 -11.921875 C 9.605469 -12.0625 9.421875 -12.164062 9.34375 -12.339844 C 9.195312 -12.476562 9.117188 -12.65625 9.003906 -12.832031 L 8.699219 -13.253906 C 8.550781 -13.390625 8.472656 -13.570312 8.355469 -13.746094 C 8.207031 -13.917969 8.058594 -14.058594 7.90625 -14.269531 C 7.792969 -14.40625 7.644531 -14.546875 7.527344 -14.722656 C 7.378906 -14.898438 7.265625 -15.035156 7.113281 -15.210938 L 6.738281 -15.628906 C 6.660156 -15.769531 6.546875 -15.910156 6.433594 -16.050781 C 6.320312 -16.226562 6.207031 -16.402344 6.054688 -16.542969 C 5.941406 -16.71875 5.863281 -16.894531 5.75 -17.035156 C 5.675781 -17.140625 5.632812 -17.246094 5.558594 -17.386719 L 5.324219 -17.882812 C 5.28125 -18.0625 5.203125 -18.238281 5.195312 -18.457031 L 5.222656 -18.601562 C 5.21875 -18.78125 5.320312 -18.964844 5.382812 -19.148438 C 5.417969 -19.257812 5.375 -19.363281 5.410156 -19.472656 C 5.4375 -19.617188 5.542969 -19.730469 5.609375 -19.839844 L 5.851562 -20.171875 C 5.953125 -20.285156 6.09375 -20.398438 6.234375 -20.476562 C 6.375 -20.625 6.515625 -20.703125 6.65625 -20.816406 C 6.867188 -20.894531 7.082031 -20.972656 7.332031 -21.019531 C 7.476562 -21.023438 7.582031 -21.066406 7.691406 -21.070312 L 7.800781 -21.074219 C 7.871094 -21.039062 7.980469 -21.007812 8.054688 -21.011719 L 8.089844 -21.011719 C 8.230469 -21.050781 8.300781 -21.128906 8.332031 -21.238281 C 8.367188 -21.308594 8.363281 -21.382812 8.363281 -21.453125 C 8.339844 -22.066406 8.351562 -22.679688 8.328125 -23.289062 L 8.257812 -23.289062 C 8.238281 -23.828125 8.21875 -24.367188 8.199219 -24.90625 L 8.191406 -25.121094 C 8.1875 -25.230469 8.21875 -25.339844 8.144531 -25.445312 C 8.105469 -25.480469 8.035156 -25.476562 7.996094 -25.511719 C 7.886719 -25.542969 7.8125 -25.578125 7.742188 -25.574219 C 7.742188 -25.609375 7.703125 -25.609375 7.703125 -25.609375 C 7.667969 -25.605469 7.667969 -25.570312 7.632812 -25.570312 C 7.597656 -25.570312 7.5625 -25.566406 7.527344 -25.566406 L 7.488281 -25.5625 C 7.488281 -25.5625 6.835938 -25.683594 6.945312 -25.652344 Z M 6.945312 -25.652344 "/></g></g></g><g fill="#6c6dd6" fill-opacity="1"><g transform="translate(200.033219, 255.696782)"><g><path d="M 6.21875 -5.84375 C 6.480469 -4.71875 6.644531 -3.539062 6.902344 -2.417969 C 6.929688 -2.3125 7.03125 -2.1875 7.054688 -2.082031 L 7.070312 -2.011719 C 7.0625 -1.898438 6.9375 -1.796875 6.839844 -1.738281 C 6.75 -1.640625 6.65625 -1.582031 6.523438 -1.515625 L 6.453125 -1.5 C 5.296875 -1.230469 4.121094 -1.03125 3 -0.769531 C 2.894531 -0.746094 2.824219 -0.730469 2.746094 -0.75 C 2.640625 -0.722656 2.570312 -0.707031 2.519531 -0.769531 C 2.40625 -0.78125 2.328125 -0.800781 2.304688 -0.90625 C 2.261719 -0.929688 2.214844 -0.957031 2.199219 -1.027344 C 2.140625 -1.125 2.117188 -1.230469 2.09375 -1.335938 L 1.523438 -3.789062 C 1.335938 -4.597656 1.140625 -5.4375 0.953125 -6.246094 L 0.375 -8.734375 C 0.1875 -9.542969 0.0625 -10.398438 -0.125 -11.207031 C -0.320312 -12.046875 -0.578125 -12.835938 -0.773438 -13.679688 C -0.980469 -14.554688 -1.113281 -15.449219 -1.324219 -16.359375 C -1.527344 -17.238281 -1.800781 -18.097656 -2.011719 -19.007812 C -2.21875 -19.886719 -2.386719 -20.769531 -2.597656 -21.683594 C -2.800781 -22.558594 -2.96875 -23.445312 -3.179688 -24.355469 C -3.207031 -24.460938 -3.230469 -24.566406 -3.21875 -24.679688 C -3.226562 -24.863281 -3.144531 -24.992188 -2.976562 -25.070312 C -2.914062 -25.121094 -2.84375 -25.136719 -2.773438 -25.152344 C -2.074219 -25.316406 0.765625 -25.976562 1.46875 -26.136719 L 3.605469 -26.636719 C 3.746094 -26.667969 3.914062 -26.742188 4.054688 -26.777344 L 4.335938 -26.839844 C 4.40625 -26.855469 4.457031 -26.796875 4.527344 -26.8125 C 4.894531 -26.824219 5.289062 -26.878906 5.664062 -26.855469 C 6.039062 -26.828125 6.414062 -26.804688 6.761719 -26.738281 C 6.910156 -26.738281 7.066406 -26.699219 7.179688 -26.6875 C 7.421875 -26.597656 7.683594 -26.585938 7.925781 -26.492188 C 8.082031 -26.457031 8.1875 -26.332031 8.308594 -26.285156 C 8.507812 -26.222656 8.671875 -26.148438 8.871094 -26.082031 L 9.402344 -25.875 C 9.574219 -25.765625 9.761719 -25.589844 9.9375 -25.480469 L 10.316406 -25.273438 C 10.410156 -25.183594 10.550781 -25.070312 10.679688 -24.988281 L 10.816406 -24.871094 C 11.050781 -24.667969 11.253906 -24.417969 11.488281 -24.214844 C 11.648438 -23.992188 11.839844 -23.816406 11.992188 -23.628906 C 12.101562 -23.472656 12.242188 -23.355469 12.34375 -23.230469 C 12.453125 -23.074219 12.566406 -22.914062 12.640625 -22.746094 C 12.8125 -22.488281 12.957031 -22.191406 13.089844 -21.925781 C 13.175781 -21.722656 13.1875 -21.503906 13.238281 -21.296875 C 13.304688 -21.164062 13.398438 -21.074219 13.433594 -20.933594 C 13.441406 -20.898438 13.40625 -20.890625 13.40625 -20.890625 C 13.488281 -20.6875 13.574219 -20.484375 13.621094 -20.277344 C 13.652344 -20.136719 13.660156 -19.953125 13.691406 -19.8125 C 13.753906 -19.382812 13.808594 -18.988281 13.792969 -18.578125 C 13.808594 -18.359375 13.777344 -18.167969 13.75 -17.976562 C 13.726562 -17.75 13.699219 -17.558594 13.675781 -17.332031 L 13.660156 -16.921875 C 13.617188 -16.800781 13.640625 -16.695312 13.628906 -16.582031 C 13.585938 -16.460938 13.496094 -16.367188 13.449219 -16.246094 L 13.34375 -15.738281 C 13.246094 -15.53125 13.1875 -15.296875 13.089844 -15.089844 C 13.023438 -14.890625 12.882812 -14.707031 12.808594 -14.542969 C 12.765625 -14.421875 12.710938 -14.335938 12.65625 -14.25 C 12.601562 -14.164062 12.546875 -14.078125 12.503906 -13.953125 L 12.082031 -13.375 C 11.886719 -13.109375 11.726562 -12.851562 11.484375 -12.609375 C 11.308594 -12.421875 11.128906 -12.230469 10.90625 -12.070312 C 10.722656 -11.914062 10.535156 -11.761719 10.386719 -11.613281 C 10.066406 -11.394531 9.707031 -11.199219 9.378906 -11.011719 C 9.125 -10.839844 8.851562 -10.742188 8.578125 -10.640625 C 8.445312 -10.574219 8.304688 -10.539062 8.175781 -10.472656 L 7.71875 -10.367188 C 7.550781 -10.292969 7.375 -10.25 7.234375 -10.21875 C 6.746094 -10.105469 6.28125 -10.035156 5.789062 -9.917969 C 5.71875 -9.902344 5.664062 -9.816406 5.5625 -9.792969 C 5.464844 -9.734375 5.382812 -9.601562 5.378906 -9.453125 C 5.40625 -9.347656 5.386719 -9.269531 5.402344 -9.199219 C 5.5 -8.78125 5.984375 -6.859375 6.21875 -5.84375 Z M 3.359375 -18.003906 C 3.40625 -17.792969 3.429688 -17.539062 3.476562 -17.328125 C 3.535156 -17.082031 3.617188 -16.878906 3.675781 -16.636719 C 3.78125 -16.179688 3.929688 -15.695312 4.042969 -15.207031 L 4.066406 -14.953125 C 4.097656 -14.8125 4.308594 -14.710938 4.445312 -14.746094 C 4.515625 -14.761719 4.59375 -14.742188 4.699219 -14.765625 C 5.15625 -14.871094 5.65625 -14.953125 6.148438 -15.066406 C 6.25 -15.089844 6.367188 -15.078125 6.460938 -15.140625 C 6.671875 -15.1875 6.867188 -15.304688 7.070312 -15.390625 L 7.441406 -15.699219 C 7.601562 -15.808594 7.714844 -15.949219 7.832031 -16.085938 C 7.984375 -16.230469 8.0625 -16.359375 8.179688 -16.5 C 8.320312 -16.679688 8.429688 -16.851562 8.492188 -17.050781 C 8.539062 -17.171875 8.59375 -17.261719 8.605469 -17.375 C 8.65625 -17.460938 8.703125 -17.582031 8.722656 -17.660156 C 8.777344 -17.894531 8.851562 -18.058594 8.871094 -18.285156 C 8.855469 -18.355469 8.796875 -18.453125 8.808594 -18.566406 C 8.800781 -18.75 8.824219 -18.976562 8.773438 -19.1875 C 8.75 -19.292969 8.65625 -19.382812 8.640625 -19.449219 L 8.574219 -19.730469 C 8.515625 -19.828125 8.515625 -19.976562 8.457031 -20.074219 C 8.390625 -20.207031 8.320312 -20.339844 8.21875 -20.460938 C 8.109375 -20.621094 7.960938 -20.773438 7.816406 -20.921875 C 7.671875 -21.074219 7.488281 -21.21875 7.273438 -21.351562 C 7.230469 -21.378906 7.160156 -21.363281 7.082031 -21.378906 C 6.902344 -21.523438 6.71875 -21.667969 6.519531 -21.730469 C 6.320312 -21.796875 6.128906 -21.824219 5.9375 -21.855469 C 5.511719 -21.941406 5.082031 -21.878906 4.625 -21.769531 L 4.390625 -21.679688 C 4.308594 -21.699219 4.265625 -21.726562 4.195312 -21.707031 C 3.8125 -21.617188 3.425781 -21.53125 3.011719 -21.398438 C 2.941406 -21.378906 2.871094 -21.363281 2.847656 -21.320312 C 2.75 -21.261719 2.722656 -21.21875 2.703125 -21.140625 C 2.691406 -21.027344 2.71875 -20.921875 2.742188 -20.816406 L 3.066406 -19.414062 C 3.148438 -19.0625 3.257812 -18.753906 3.304688 -18.394531 C 3.335938 -18.257812 3.332031 -18.109375 3.359375 -18.003906 Z M 3.359375 -18.003906 "/></g></g></g><g fill="#6c6dd6" fill-opacity="1"><g transform="translate(221.325514, 250.365963)"><g><path d="M 8.957031 -18.464844 C 9.308594 -17.753906 9.691406 -17.058594 10.058594 -16.316406 C 10.40625 -15.605469 10.789062 -14.914062 11.140625 -14.203125 L 12.207031 -12.039062 C 12.558594 -11.328125 12.890625 -10.570312 13.242188 -9.859375 C 13.589844 -9.148438 13.910156 -8.421875 14.277344 -7.679688 C 14.308594 -7.613281 14.417969 -7.550781 14.46875 -7.453125 C 14.515625 -7.355469 14.449219 -7.164062 14.367188 -7.082031 L 14.238281 -7.019531 C 14.03125 -6.875 13.769531 -6.75 13.546875 -6.636719 C 12.578125 -6.160156 11.609375 -5.761719 10.640625 -5.285156 C 10.542969 -5.238281 10.445312 -5.109375 10.332031 -5.09375 C 10.21875 -5.078125 10.089844 -5.175781 10.027344 -5.304688 C 9.949219 -5.386719 9.820312 -5.484375 9.773438 -5.578125 C 9.453125 -6.226562 9.183594 -6.855469 8.863281 -7.5 C 8.546875 -8.148438 8.308594 -8.792969 7.992188 -9.4375 C 7.957031 -9.503906 7.894531 -9.550781 7.878906 -9.582031 C 7.796875 -9.664062 7.6875 -9.648438 7.605469 -9.648438 L 7.410156 -9.554688 C 6.28125 -8.996094 5.152344 -8.519531 4.054688 -7.980469 C 3.988281 -7.945312 3.925781 -7.914062 3.875 -7.851562 C 3.777344 -7.804688 3.746094 -7.707031 3.792969 -7.609375 C 3.792969 -7.53125 3.839844 -7.433594 3.875 -7.367188 C 4.03125 -7.046875 4.160156 -6.707031 4.300781 -6.414062 C 4.796875 -5.414062 5.320312 -4.429688 5.816406 -3.429688 C 5.847656 -3.363281 5.910156 -3.316406 5.941406 -3.25 C 5.992188 -3.074219 5.910156 -2.914062 5.761719 -2.800781 C 5.632812 -2.738281 5.488281 -2.707031 5.359375 -2.640625 C 4.292969 -2.117188 3.214844 -1.625 2.148438 -1.097656 C 2.050781 -1.050781 1.953125 -1.003906 1.839844 -0.988281 C 1.726562 -0.972656 1.597656 -0.988281 1.550781 -1.085938 C 1.472656 -1.167969 1.390625 -1.246094 1.34375 -1.34375 C 0.945312 -2.152344 0.546875 -2.960938 0.148438 -3.765625 L -1.042969 -6.1875 C -1.441406 -6.996094 -1.773438 -7.835938 -2.171875 -8.640625 C -2.570312 -9.449219 -3 -10.242188 -3.398438 -11.046875 C -3.78125 -11.824219 -4.179688 -12.628906 -4.578125 -13.4375 L -4.863281 -14.019531 C -4.910156 -14.195312 -4.992188 -14.355469 -5.039062 -14.535156 C -5.117188 -14.695312 -5.179688 -14.90625 -5.261719 -15.066406 C -5.417969 -15.46875 -5.578125 -15.875 -5.65625 -16.277344 C -5.734375 -16.519531 -5.75 -16.792969 -5.796875 -17.050781 C -5.859375 -17.339844 -5.90625 -17.597656 -5.9375 -17.90625 C -5.984375 -18.164062 -6 -18.4375 -6.011719 -18.710938 C -6.011719 -18.871094 -6.074219 -19 -6.074219 -19.160156 C -6.074219 -19.402344 -6.054688 -19.613281 -6.039062 -19.820312 C -6.039062 -19.980469 -6.070312 -20.125 -6.050781 -20.253906 C -6.035156 -20.382812 -5.96875 -20.496094 -5.953125 -20.625 C -5.921875 -20.800781 -5.953125 -20.949219 -5.902344 -21.09375 L -5.769531 -21.636719 C -5.6875 -21.960938 -5.589844 -22.25 -5.460938 -22.554688 C -5.410156 -22.699219 -5.3125 -22.828125 -5.25 -22.941406 C -5.246094 -23.019531 -5.261719 -23.132812 -5.214844 -23.195312 C -5.132812 -23.359375 -5.019531 -23.453125 -4.9375 -23.613281 C -4.808594 -23.839844 -4.742188 -24.113281 -4.597656 -24.304688 L -4.386719 -24.609375 C -4.320312 -24.640625 -4.257812 -24.671875 -4.238281 -24.722656 C -4.160156 -24.800781 -4.125 -24.898438 -4.046875 -24.976562 C -3.933594 -25.152344 -3.785156 -25.347656 -3.625 -25.507812 C -3.527344 -25.636719 -3.414062 -25.730469 -3.300781 -25.828125 C -3.105469 -26.003906 -2.910156 -26.179688 -2.734375 -26.304688 C -2.492188 -26.546875 -2.230469 -26.753906 -2.003906 -26.945312 C -1.828125 -27.074219 -1.617188 -27.136719 -1.472656 -27.25 C -1.34375 -27.3125 -1.199219 -27.425781 -1.070312 -27.488281 C -0.921875 -27.601562 -0.730469 -27.695312 -0.566406 -27.777344 C -0.359375 -27.917969 -0.179688 -28.046875 0.046875 -28.160156 L 1.757812 -29.003906 C 2.257812 -29.207031 3.273438 -29.507812 3.785156 -28.878906 C 4.265625 -28.3125 4.519531 -27.632812 4.835938 -26.988281 C 5.140625 -26.375 5.425781 -25.792969 5.710938 -25.210938 L 5.824219 -24.988281 C 6.175781 -24.277344 6.507812 -23.515625 6.859375 -22.808594 C 7.207031 -22.097656 7.542969 -21.339844 7.890625 -20.628906 Z M 3.4375 -18.671875 C 3.105469 -19.351562 2.738281 -20.011719 2.402344 -20.691406 C 2.070312 -21.367188 1.703125 -22.03125 1.367188 -22.710938 L 1.320312 -22.804688 C 1.289062 -22.871094 1.257812 -22.933594 1.191406 -22.984375 C 1.09375 -23.015625 1.015625 -23.015625 0.949219 -22.984375 C 0.855469 -22.9375 0.820312 -22.839844 0.757812 -22.808594 C 0.644531 -22.714844 0.546875 -22.664062 0.449219 -22.617188 C 0.289062 -22.457031 0.140625 -22.347656 -0.00390625 -22.234375 C -0.117188 -22.136719 -0.214844 -22.011719 -0.296875 -21.929688 C -0.359375 -21.816406 -0.488281 -21.753906 -0.570312 -21.671875 C -0.765625 -21.417969 -0.832031 -21.144531 -0.960938 -20.839844 C -1.058594 -20.628906 -1.15625 -20.421875 -1.207031 -20.195312 C -1.238281 -19.9375 -1.210938 -19.632812 -1.195312 -19.359375 C -1.210938 -19.148438 -1.246094 -18.972656 -1.214844 -18.746094 C -1.183594 -18.441406 -1.152344 -18.136719 -1.089844 -17.84375 C -0.996094 -17.488281 -0.886719 -17.183594 -0.757812 -16.84375 C -0.679688 -16.683594 -0.566406 -16.539062 -0.519531 -16.359375 L -0.265625 -15.84375 C -0.105469 -15.519531 -0.0117188 -15.167969 0.148438 -14.84375 L 1.277344 -12.550781 C 1.324219 -12.453125 1.390625 -12.40625 1.453125 -12.355469 C 1.5 -12.257812 1.628906 -12.242188 1.695312 -12.273438 C 1.777344 -12.273438 1.839844 -12.304688 1.90625 -12.339844 C 3.003906 -12.878906 4.132812 -13.4375 5.214844 -14.011719 C 5.28125 -14.042969 5.328125 -14.105469 5.394531 -14.136719 C 5.441406 -14.203125 5.457031 -14.25 5.441406 -14.363281 L 5.410156 -14.507812 C 5.0625 -15.21875 4.789062 -15.929688 4.457031 -16.605469 Z M 3.4375 -18.671875 "/></g></g></g><g fill="#6c6dd6" fill-opacity="1"><g transform="translate(240.682943, 240.404483)"><g><path d="M -4.945312 -28.742188 C -4.722656 -28.921875 -4.515625 -29.183594 -4.292969 -29.367188 C -4.152344 -29.480469 -3.96875 -29.539062 -3.785156 -29.597656 C -3.675781 -29.636719 -3.539062 -29.75 -3.414062 -29.710938 C -3.363281 -29.707031 -3.316406 -29.652344 -3.265625 -29.648438 C -3.144531 -29.609375 -3.046875 -29.546875 -2.949219 -29.488281 C -2.59375 -29.222656 -2.269531 -28.882812 -1.949219 -28.492188 C -1.652344 -28.128906 -1.363281 -27.714844 -1.089844 -27.382812 L -0.976562 -27.242188 C -0.953125 -27.214844 -0.902344 -27.210938 -0.878906 -27.179688 C -0.832031 -27.125 -0.789062 -27.070312 -0.742188 -27.015625 L -0.777344 -26.941406 C -0.503906 -26.605469 -0.316406 -26.152344 -0.511719 -25.761719 C -0.574219 -25.617188 -0.710938 -25.550781 -0.769531 -25.457031 C -0.855469 -25.386719 -0.914062 -25.292969 -1 -25.222656 C -1.683594 -24.523438 -2.386719 -23.90625 -3.019531 -23.199219 C -3.652344 -22.496094 -4.234375 -21.789062 -4.515625 -20.765625 C -4.820312 -19.773438 -4.976562 -18.714844 -4.878906 -17.683594 C -4.835938 -17.574219 -4.875 -17.453125 -4.863281 -17.320312 L -4.761719 -16.800781 C -4.691406 -16.484375 -4.535156 -16.242188 -4.4375 -15.949219 C -4.339844 -15.65625 -4.15625 -15.433594 -4.050781 -15.195312 C -3.949219 -14.953125 -3.929688 -14.644531 -3.796875 -14.425781 C -3.640625 -14.179688 -3.484375 -13.984375 -3.300781 -13.761719 C -2.980469 -13.371094 -2.65625 -13.03125 -2.28125 -12.6875 C -2.230469 -12.683594 -2.148438 -12.75 -2.097656 -12.746094 C -1.910156 -12.574219 -1.746094 -12.429688 -1.554688 -12.308594 C -0.925781 -11.9375 -0.351562 -11.523438 0.316406 -11.328125 C 0.960938 -11.109375 1.683594 -10.910156 2.398438 -10.886719 C 2.578125 -10.894531 2.738281 -10.980469 2.867188 -10.996094 C 4.152344 -11.019531 5.367188 -11.410156 6.457031 -12.066406 C 6.617188 -12.152344 6.847656 -12.15625 6.988281 -12.269531 C 7.265625 -12.496094 7.667969 -12.917969 8.085938 -13.257812 C 8.613281 -13.691406 9.210938 -14.042969 9.703125 -13.839844 C 9.804688 -13.828125 9.910156 -13.871094 9.980469 -13.785156 C 10.003906 -13.757812 10.054688 -13.753906 10.097656 -13.695312 C 10.144531 -13.640625 10.15625 -13.511719 10.203125 -13.457031 C 10.25 -13.402344 10.328125 -13.417969 10.371094 -13.363281 C 10.371094 -13.363281 10.421875 -13.359375 10.445312 -13.328125 C 10.464844 -13.25 10.480469 -13.171875 10.554688 -13.140625 C 10.578125 -13.113281 10.632812 -13.15625 10.65625 -13.128906 C 11.066406 -12.628906 11.421875 -12.082031 11.832031 -11.578125 C 11.851562 -11.550781 11.902344 -11.546875 11.902344 -11.546875 C 11.921875 -11.46875 11.9375 -11.390625 11.960938 -11.359375 C 12.011719 -11.355469 12.007812 -11.304688 12.003906 -11.253906 C 12.027344 -11.226562 12.15625 -11.238281 12.199219 -11.183594 C 12.3125 -11.042969 12.320312 -10.863281 12.378906 -10.679688 C 12.578125 -10.097656 12.089844 -9.558594 11.585938 -9.148438 C 11.308594 -8.917969 11.007812 -8.71875 10.785156 -8.539062 C 10.726562 -8.492188 10.675781 -8.496094 10.621094 -8.449219 L 10.59375 -8.429688 C 10.566406 -8.40625 10.582031 -8.328125 10.554688 -8.304688 C 9.917969 -7.832031 9.265625 -7.4375 8.589844 -7.070312 C 7.917969 -6.753906 7.171875 -6.46875 6.460938 -6.257812 C 5.722656 -6.027344 4.988281 -5.84375 4.207031 -5.71875 L 4.160156 -5.773438 C 3.230469 -5.664062 2.308594 -5.652344 1.417969 -5.714844 C 0.507812 -5.808594 -0.402344 -5.949219 -1.292969 -6.246094 C -2.160156 -6.511719 -2.964844 -6.921875 -3.761719 -7.386719 C -3.90625 -7.453125 -4.023438 -7.59375 -4.167969 -7.660156 C -4.53125 -7.875 -4.949219 -8.042969 -5.277344 -8.332031 C -5.515625 -8.511719 -5.671875 -8.757812 -5.902344 -8.984375 C -6.046875 -9.101562 -6.242188 -9.171875 -6.355469 -9.3125 C -6.429688 -9.34375 -6.503906 -9.375 -6.550781 -9.433594 C -6.59375 -9.488281 -6.609375 -9.617188 -6.703125 -9.679688 C -7.324219 -10.378906 -7.917969 -11.105469 -8.398438 -11.921875 C -8.484375 -12.082031 -8.519531 -12.238281 -8.582031 -12.375 C -8.644531 -12.507812 -8.765625 -12.597656 -8.828125 -12.730469 C -8.890625 -12.867188 -8.976562 -13.027344 -9.039062 -13.160156 L -9.140625 -13.453125 C -9.21875 -13.667969 -9.328125 -13.855469 -9.410156 -14.070312 C -9.46875 -14.253906 -9.605469 -14.421875 -9.664062 -14.605469 C -9.878906 -15.265625 -9.9375 -15.964844 -10.023438 -16.636719 C -10.136719 -17.289062 -10.09375 -17.976562 -10.101562 -18.667969 C -10.085938 -18.820312 -10.25 -18.960938 -10.234375 -19.113281 C -10.222656 -19.214844 -10.136719 -19.335938 -10.125 -19.4375 C -10.089844 -20.304688 -9.925781 -21.179688 -9.6875 -22.027344 C -9.445312 -22.875 -9.078125 -23.730469 -8.671875 -24.484375 C -8.257812 -25.285156 -7.800781 -26.035156 -7.246094 -26.71875 C -6.867188 -27.167969 -6.449219 -27.511719 -6.003906 -27.875 Z M -4.945312 -28.742188 "/></g></g></g><g fill="#6c6dd6" fill-opacity="1"><g transform="translate(256.857542, 226.612391)"><g><path d="M -9.636719 -8.875 C -9.832031 -9.03125 -10.003906 -9.21875 -10.15625 -9.429688 C -10.324219 -9.335938 -11.292969 -10.664062 -11.445312 -10.878906 C -12.183594 -11.792969 -12.761719 -12.859375 -13.210938 -13.910156 C -13.363281 -14.351562 -13.542969 -14.820312 -13.644531 -15.269531 C -13.90625 -16.265625 -14.082031 -17.375 -14.089844 -18.394531 C -14.109375 -18.546875 -14.097656 -18.675781 -14.085938 -18.808594 C -14.089844 -18.859375 -14.074219 -18.9375 -14.105469 -19.007812 L -14 -20.351562 C -13.984375 -20.433594 -13.890625 -20.542969 -13.902344 -20.644531 C -13.863281 -20.753906 -13.851562 -20.882812 -13.8125 -20.988281 C -13.820312 -21.039062 -13.875 -21.082031 -13.851562 -21.113281 C -13.878906 -21.132812 -13.828125 -21.140625 -13.808594 -21.167969 C -13.820312 -21.269531 -13.808594 -21.398438 -13.769531 -21.503906 C -13.777344 -21.605469 -13.710938 -21.691406 -13.722656 -21.792969 C -13.675781 -21.847656 -13.710938 -21.921875 -13.6875 -21.949219 C -13.632812 -22.136719 -13.546875 -22.296875 -13.515625 -22.457031 C -13.453125 -22.589844 -13.367188 -22.753906 -13.332031 -22.910156 C -13.289062 -22.964844 -13.351562 -23.0625 -13.304688 -23.117188 C -13.3125 -23.167969 -13.265625 -23.226562 -13.222656 -23.28125 C -13.226562 -23.332031 -13.152344 -23.367188 -13.132812 -23.394531 C -13.113281 -23.472656 -13.070312 -23.527344 -13.050781 -23.609375 C -13.007812 -23.664062 -13.019531 -23.765625 -13 -23.84375 C -12.984375 -23.921875 -12.9375 -23.976562 -12.894531 -24.035156 L -12.585938 -24.710938 C -12.496094 -24.820312 -12.382812 -24.960938 -12.296875 -25.125 C -12.230469 -25.210938 -12.21875 -25.339844 -12.152344 -25.421875 C -12.066406 -25.585938 -11.949219 -25.675781 -11.863281 -25.839844 C -11.644531 -26.171875 -11.3125 -26.410156 -10.898438 -26.355469 C -10.765625 -26.34375 -10.65625 -26.253906 -10.546875 -26.214844 C -10.027344 -25.886719 -9.527344 -25.53125 -9.046875 -25.148438 C -8.765625 -24.925781 -8.484375 -24.699219 -8.253906 -24.46875 C -7.746094 -24.011719 -7.328125 -23.496094 -7.738281 -22.808594 L -7.828125 -22.699219 C -7.847656 -22.621094 -7.917969 -22.585938 -7.964844 -22.53125 L -8.195312 -22.070312 C -9.136719 -20.148438 -9.257812 -17.75 -8.449219 -15.765625 C -8.382812 -15.621094 -8.269531 -15.53125 -8.203125 -15.382812 L -8.09375 -15.113281 C -8.039062 -15.070312 -7.964844 -15.101562 -7.9375 -15.078125 C -7.882812 -15.035156 -7.847656 -14.960938 -7.746094 -14.972656 C -7.667969 -14.957031 -7.566406 -14.96875 -7.492188 -15 C -7.375 -15.089844 -7.335938 -15.199219 -7.246094 -15.308594 C -7.15625 -15.421875 -7.015625 -15.539062 -6.925781 -15.652344 C -6.902344 -15.679688 -6.902344 -15.679688 -6.902344 -15.679688 L -6.835938 -15.765625 C -6.839844 -15.816406 -6.761719 -15.796875 -6.738281 -15.828125 C -6.3125 -16.359375 -5.882812 -16.894531 -5.484375 -17.449219 C -5.257812 -17.730469 -5.054688 -17.984375 -4.882812 -18.257812 C -4.703125 -18.484375 -4.464844 -18.664062 -4.285156 -18.890625 L -4.242188 -18.945312 C -4.082031 -19.140625 -3.859375 -19.421875 -3.667969 -19.546875 C -3.617188 -19.550781 -3.617188 -19.550781 -3.59375 -19.578125 C -3.347656 -19.65625 -3.085938 -19.636719 -2.867188 -19.507812 C -2.734375 -19.445312 -2.59375 -19.332031 -2.480469 -19.242188 C -2.285156 -19.082031 -2.058594 -18.902344 -1.863281 -18.746094 L -0.824219 -17.914062 C -0.792969 -17.890625 -0.789062 -17.839844 -0.789062 -17.839844 C -0.761719 -17.816406 -0.6875 -17.851562 -0.632812 -17.804688 C -0.324219 -17.558594 0.183594 -17.152344 0.183594 -16.691406 C 0.171875 -16.332031 0.0195312 -16.085938 -0.183594 -15.832031 C -0.320312 -15.664062 -0.429688 -15.523438 -0.59375 -15.378906 C -1.027344 -14.894531 -1.421875 -14.289062 -1.828125 -13.78125 C -2.277344 -13.21875 -2.734375 -12.707031 -3.160156 -12.175781 C -3.25 -12.0625 -3.363281 -11.921875 -3.398438 -11.765625 C -3.4375 -11.65625 -3.425781 -11.554688 -3.390625 -11.484375 C -3.378906 -11.382812 -3.347656 -11.308594 -3.289062 -11.265625 C -3.234375 -11.21875 -3.199219 -11.144531 -3.121094 -11.128906 C -3.039062 -11.0625 -2.9375 -11.074219 -2.808594 -11.0625 C -2.78125 -11.039062 -2.75 -11.015625 -2.722656 -10.992188 L -2.230469 -10.921875 C -1.992188 -10.871094 -1.71875 -10.925781 -1.457031 -10.902344 C -1.019531 -10.875 -0.644531 -10.941406 -0.1875 -10.992188 C -0.0117188 -11.035156 0.171875 -10.980469 0.375 -11.003906 C 0.824219 -11.101562 1.359375 -11.367188 1.824219 -11.546875 C 2.460938 -11.820312 3.113281 -12.175781 3.652344 -12.617188 C 3.726562 -12.652344 3.792969 -12.738281 3.863281 -12.820312 C 3.980469 -12.910156 4.070312 -13.023438 4.164062 -13.085938 C 4.304688 -13.203125 4.425781 -13.292969 4.59375 -13.386719 C 4.6875 -13.449219 4.789062 -13.460938 4.941406 -13.476562 C 5.042969 -13.488281 5.117188 -13.523438 5.195312 -13.507812 C 5.402344 -13.476562 5.488281 -13.410156 5.570312 -13.34375 C 5.628906 -13.296875 5.683594 -13.253906 5.738281 -13.207031 L 5.851562 -13.117188 C 6.101562 -12.964844 6.324219 -12.785156 6.550781 -12.605469 C 6.800781 -12.402344 7.027344 -12.222656 7.257812 -11.992188 C 7.480469 -11.8125 7.707031 -11.632812 7.910156 -11.421875 C 8.078125 -11.289062 8.351562 -11.113281 8.449219 -10.945312 C 8.503906 -10.898438 8.515625 -10.800781 8.550781 -10.726562 L 8.539062 -10.597656 C 8.542969 -10.546875 8.503906 -10.4375 8.480469 -10.410156 C 8.429688 -10.175781 8.347656 -10.011719 8.234375 -9.871094 C 8.144531 -9.757812 8.054688 -9.648438 7.929688 -9.609375 C 7.8125 -9.519531 7.75 -9.382812 7.660156 -9.269531 C 7.496094 -9.125 7.332031 -8.976562 7.164062 -8.882812 C 7.140625 -8.855469 7.125 -8.777344 7.074219 -8.769531 C 6.984375 -8.65625 6.832031 -8.640625 6.714844 -8.550781 C 6.640625 -8.519531 6.628906 -8.386719 6.535156 -8.328125 C 6.394531 -8.207031 6.203125 -8.085938 6.035156 -7.988281 C 5.695312 -7.800781 5.332031 -7.628906 5.019531 -7.417969 C 4.734375 -7.230469 4.476562 -7.023438 4.183594 -6.890625 C 4.109375 -6.855469 4.007812 -6.84375 3.996094 -6.945312 C 4.003906 -6.664062 2.625 -6.382812 2.449219 -6.339844 C 2.304688 -6.273438 2.1875 -6.183594 2.011719 -6.136719 C 1.859375 -6.121094 1.6875 -6.078125 1.511719 -6.03125 C 1.164062 -5.941406 0.753906 -5.949219 0.375 -5.878906 C -0.277344 -5.757812 -1.070312 -5.746094 -1.761719 -5.746094 L -2.25 -5.769531 C -2.507812 -5.792969 -2.75 -5.894531 -3.035156 -5.941406 C -3.164062 -5.949219 -3.265625 -5.941406 -3.398438 -5.949219 L -3.53125 -6.011719 C -3.949219 -6.070312 -4.414062 -6.121094 -4.785156 -6.234375 C -5.242188 -6.414062 -5.710938 -6.515625 -6.117188 -6.703125 L -6.464844 -6.84375 C -6.574219 -6.882812 -6.632812 -6.976562 -6.742188 -7.015625 C -6.875 -7.078125 -6.960938 -7.144531 -7.074219 -7.234375 C -7.207031 -7.296875 -7.359375 -7.28125 -7.492188 -7.34375 C -7.683594 -7.449219 -7.855469 -7.585938 -8.042969 -7.691406 C -8.292969 -7.84375 -8.488281 -8 -8.714844 -8.183594 C -9.015625 -8.378906 -9.324219 -8.625 -9.636719 -8.875 Z M -9.636719 -8.875 "/></g></g></g></svg>